<svg xmlns="http://www.w3.org/2000/svg" xmlns:v="https://svgstorm.com"
viewBox = "0 0 256 256"
width="256"
height="256">
<g fill="None" fill-opacity="0.0" stroke="#FEFDFC" stroke-opacity="1.00" stroke-width="0.3"><path d="
M 0.00 256.00 
L 256.00 256.00
L 256.00 0.00
L 0.00 0.00
L 0.00 256.00
M 164.00 35.00 
C 167.18 35.45 169.38 36.19 172.00 37.00
C 185.95 39.41 209.90 47.44 212.92 65.08 C 215.95 82.71 195.07 95.40 178.93 99.93 C 162.79 104.45 136.86 109.68 118.00 108.00 C 99.14 106.32 79.92 100.95 62.78 94.22 C 45.63 87.50 35.08 67.94 50.25 54.25 C 65.42 40.56 79.26 37.82 99.00 34.00 C 118.74 30.18 144.09 32.16 164.00 35.00
M 45.00 90.00 
C 47.26 93.29 53.79 99.73 57.00 102.00
C 103.37 124.93 176.70 127.35 213.00 86.00
C 217.24 107.64 210.36 127.64 189.77 135.77 C 169.18 143.90 149.82 147.33 127.00 147.00 C 104.18 146.67 86.50 143.09 65.92 135.08 C 45.34 127.07 37.62 106.85 42.00 85.00
C 44.52 84.70 44.35 88.30 45.00 90.00
M 213.00 152.00 
C 213.00 152.50 212.98 153.50 213.00 154.00
C 213.39 162.22 201.36 170.16 195.00 173.00
C 192.06 174.32 189.02 175.51 186.00 177.00
C 180.38 179.78 175.40 180.76 169.00 182.00
C 141.10 191.92 100.37 188.86 74.00 178.00
C 61.14 175.52 45.97 164.39 43.00 151.00
C 41.32 143.42 41.34 132.51 43.00 125.00
C 44.90 126.99 46.38 129.66 48.00 132.00
C 52.59 137.26 62.02 143.14 68.00 146.00
C 85.59 152.10 100.74 154.24 120.00 157.00 C 139.27 159.76 158.98 150.61 177.00 150.00
C 177.95 149.97 179.06 150.17 180.00 150.00
C 182.00 149.24 184.56 146.96 187.00 146.00
C 196.93 140.52 206.13 131.12 214.00 124.00
C 213.34 133.17 215.33 143.66 213.00 152.00
M 213.00 192.00 
C 212.13 195.06 210.61 196.60 209.00 199.00
C 207.61 201.57 205.97 204.55 203.00 206.00
C 195.50 213.50 185.57 219.32 175.00 221.00
C 137.15 227.02 87.97 232.99 56.00 208.00
C 40.93 198.67 40.88 181.60 42.00 165.00
C 71.68 201.68 131.24 199.37 175.00 191.00
C 179.15 189.37 183.58 186.74 188.00 185.00
C 191.95 182.89 199.68 177.82 202.75 174.75 C 205.82 171.68 212.95 159.99 213.97 167.03 C 214.99 174.07 214.78 185.70 213.00 192.00 Z"/>
</g>
<g fill="None" fill-opacity="0.0" stroke="#FD9D15" stroke-opacity="1.00" stroke-width="0.3"><path d="
M 172.00 37.00 
C 169.13 36.51 166.41 35.65 164.00 35.00
C 144.09 32.16 118.74 30.18 99.00 34.00 C 79.26 37.82 65.42 40.56 50.25 54.25 C 35.08 67.94 45.63 87.50 62.78 94.22 C 79.92 100.95 99.14 106.32 118.00 108.00 C 136.86 109.68 162.79 104.45 178.93 99.93 C 195.07 95.40 215.95 82.71 212.92 65.08 C 209.90 47.44 185.95 39.41 172.00 37.00 Z"/>
</g>
<g fill="None" fill-opacity="0.0" stroke="#F3C692" stroke-opacity="1.00" stroke-width="0.3"><path d="
M 172.00 37.00 
C 169.38 36.19 167.18 35.45 164.00 35.00
C 166.41 35.65 169.13 36.51 172.00 37.00 Z"/>
</g>
<g fill="None" fill-opacity="0.0" stroke="#FBA026" stroke-opacity="1.00" stroke-width="0.3"><path d="
M 57.00 102.00 
C 52.22 99.64 47.28 94.78 45.00 90.00
C 44.35 88.30 44.52 84.70 42.00 85.00
C 37.62 106.85 45.34 127.07 65.92 135.08 C 86.50 143.09 104.18 146.67 127.00 147.00 C 149.82 147.33 169.18 143.90 189.77 135.77 C 210.36 127.64 217.24 107.64 213.00 86.00
C 176.70 127.35 103.37 124.93 57.00 102.00 Z"/>
</g>
<g fill="None" fill-opacity="0.0" stroke="#F2BD7F" stroke-opacity="1.00" stroke-width="0.3"><path d="
M 57.00 102.00 
C 53.79 99.73 47.26 93.29 45.00 90.00
C 47.28 94.78 52.22 99.64 57.00 102.00 Z"/>
</g>
<g fill="None" fill-opacity="0.0" stroke="#F9EBDA" stroke-opacity="1.00" stroke-width="0.3"><path d="
M 187.00 146.00 
C 197.46 141.89 206.00 133.95 213.00 126.00
C 213.00 134.67 213.00 143.33 213.00 152.00
C 215.33 143.66 213.34 133.17 214.00 124.00
C 206.13 131.12 196.93 140.52 187.00 146.00 Z"/>
</g>
<g fill="None" fill-opacity="0.0" stroke="#F3C692" stroke-opacity="1.00" stroke-width="0.3"><path d="
M 43.00 151.00 
C 42.24 143.65 42.73 134.57 44.00 128.00
C 57.94 148.05 77.85 152.56 101.01 155.99 C 124.17 159.42 155.41 158.88 177.00 150.00
C 158.98 150.61 139.27 159.76 120.00 157.00 C 100.74 154.24 85.59 152.10 68.00 146.00
C 60.65 143.45 52.80 138.46 48.00 132.00
C 46.38 129.66 44.90 126.99 43.00 125.00
C 41.34 132.51 41.32 143.42 43.00 151.00 Z"/>
</g>
<g fill="None" fill-opacity="0.0" stroke="#F3C997" stroke-opacity="1.00" stroke-width="0.3"><path d="
M 187.00 146.00 
C 184.56 146.96 182.00 149.24 180.00 150.00
C 192.61 147.71 204.75 138.09 212.00 128.00
C 212.00 136.67 212.00 145.33 212.00 154.00
C 212.25 153.75 213.00 154.00 213.00 154.00
C 212.98 153.50 213.00 152.50 213.00 152.00
C 213.00 143.33 213.00 134.67 213.00 126.00
C 206.00 133.95 197.46 141.89 187.00 146.00 Z"/>
</g>
<g fill="None" fill-opacity="0.0" stroke="#FC9D11" stroke-opacity="1.00" stroke-width="0.3"><path d="
M 43.00 151.00 
C 45.97 164.39 61.14 175.52 74.00 178.00
C 95.18 182.09 118.35 186.15 141.00 185.00 C 163.65 183.85 178.82 176.28 199.00 169.00
C 199.44 168.84 200.00 169.00 200.00 169.00
C 203.29 164.29 208.12 158.71 212.00 155.00
C 212.05 154.50 212.00 154.00 212.00 154.00
C 212.00 145.33 212.00 136.67 212.00 128.00
C 204.75 138.09 192.61 147.71 180.00 150.00
C 179.06 150.17 177.95 149.97 177.00 150.00
C 155.41 158.88 124.17 159.42 101.01 155.99 C 77.85 152.56 57.94 148.05 44.00 128.00
C 42.73 134.57 42.24 143.65 43.00 151.00 Z"/>
</g>
<g fill="None" fill-opacity="0.0" stroke="#F7E5CE" stroke-opacity="1.00" stroke-width="0.3"><path d="
M 68.00 146.00 
C 62.02 143.14 52.59 137.26 48.00 132.00
C 52.80 138.46 60.65 143.45 68.00 146.00 Z"/>
</g>
<g fill="None" fill-opacity="0.0" stroke="#F8E7D2" stroke-opacity="1.00" stroke-width="0.3"><path d="
M 212.00 155.00 
C 211.59 159.39 203.96 167.06 200.00 169.00
C 200.00 169.00 199.44 168.84 199.00 169.00
C 197.88 170.17 196.31 172.18 195.00 173.00
C 201.36 170.16 213.39 162.22 213.00 154.00
C 213.00 154.00 212.25 153.75 212.00 154.00
C 212.00 154.00 212.05 154.50 212.00 155.00 Z"/>
</g>
<g fill="None" fill-opacity="0.0" stroke="#F3C187" stroke-opacity="1.00" stroke-width="0.3"><path d="
M 200.00 169.00 
C 203.96 167.06 211.59 159.39 212.00 155.00
C 208.12 158.71 203.29 164.29 200.00 169.00 Z"/>
</g>
<g fill="None" fill-opacity="0.0" stroke="#F8EAD7" stroke-opacity="1.00" stroke-width="0.3"><path d="
M 188.00 185.00 
C 197.27 181.36 202.96 175.73 210.00 169.00
C 210.09 168.52 210.00 168.00 210.00 168.00
C 210.27 166.41 210.85 164.63 213.00 165.00
C 213.00 174.00 213.00 183.00 213.00 192.00
C 214.78 185.70 214.99 174.07 213.97 167.03 C 212.95 159.99 205.82 171.68 202.75 174.75 C 199.68 177.82 191.95 182.89 188.00 185.00 Z"/>
</g>
<g fill="None" fill-opacity="0.0" stroke="#FC9E1D" stroke-opacity="1.00" stroke-width="0.3"><path d="
M 56.00 208.00 
C 77.33 221.21 104.45 224.45 130.00 224.00 C 155.55 223.55 181.77 221.46 202.00 206.00
C 202.32 205.76 203.00 206.00 203.00 206.00
C 205.97 204.55 207.61 201.57 209.00 199.00
C 211.18 194.96 212.43 186.96 212.00 183.00 C 211.57 179.04 212.42 165.95 210.00 168.00
C 210.00 168.00 210.09 168.52 210.00 169.00
C 208.78 175.24 200.72 179.18 195.77 182.77 C 190.82 186.36 181.18 189.28 175.00 191.00
C 131.24 199.37 71.68 201.68 42.00 165.00
C 40.88 181.60 40.93 198.67 56.00 208.00 Z"/>
</g>
<g fill="None" fill-opacity="0.0" stroke="#F3CC9C" stroke-opacity="1.00" stroke-width="0.3"><path d="
M 210.00 168.00 
C 212.42 165.95 211.57 179.04 212.00 183.00 C 212.43 186.96 211.18 194.96 209.00 199.00
C 210.61 196.60 212.13 195.06 213.00 192.00
C 213.00 183.00 213.00 174.00 213.00 165.00
C 210.85 164.63 210.27 166.41 210.00 168.00 Z"/>
</g>
<g fill="None" fill-opacity="0.0" stroke="#F3BD7F" stroke-opacity="1.00" stroke-width="0.3"><path d="
M 74.00 178.00 
C 100.37 188.86 141.10 191.92 169.00 182.00
C 174.28 180.12 180.39 178.80 186.00 177.00
C 189.02 175.51 192.06 174.32 195.00 173.00
C 196.31 172.18 197.88 170.17 199.00 169.00
C 178.82 176.28 163.65 183.85 141.00 185.00 C 118.35 186.15 95.18 182.09 74.00 178.00 Z"/>
</g>
<g fill="None" fill-opacity="0.0" stroke="#F3C48F" stroke-opacity="1.00" stroke-width="0.3"><path d="
M 188.00 185.00 
C 183.58 186.74 179.15 189.37 175.00 191.00
C 181.18 189.28 190.82 186.36 195.77 182.77 C 200.72 179.18 208.78 175.24 210.00 169.00
C 202.96 175.73 197.27 181.36 188.00 185.00 Z"/>
</g>
<g fill="None" fill-opacity="0.0" stroke="#F6DDC0" stroke-opacity="1.00" stroke-width="0.3"><path d="
M 169.00 182.00 
C 175.40 180.76 180.38 179.78 186.00 177.00
C 180.39 178.80 174.28 180.12 169.00 182.00 Z"/>
</g>
<g fill="None" fill-opacity="0.0" stroke="#F3BF83" stroke-opacity="1.00" stroke-width="0.3"><path d="
M 56.00 208.00 
C 87.97 232.99 137.15 227.02 175.00 221.00
C 182.51 219.11 197.26 212.78 202.00 206.00
C 181.77 221.46 155.55 223.55 130.00 224.00 C 104.45 224.45 77.33 221.21 56.00 208.00 Z"/>
</g>
<g fill="None" fill-opacity="0.0" stroke="#F8E6D0" stroke-opacity="1.00" stroke-width="0.3"><path d="
M 175.00 221.00 
C 185.57 219.32 195.50 213.50 203.00 206.00
C 203.00 206.00 202.32 205.76 202.00 206.00
C 197.26 212.78 182.51 219.11 175.00 221.00 Z"/>
</g>
<g fill="#FEFDFC" fill-opacity="1.00" stroke="None">
<path d="
M 0.00 256.00 
L 256.00 256.00
L 256.00 0.00
L 0.00 0.00
L 0.00 256.00
M 164.00 35.00 
C 167.18 35.45 169.38 36.19 172.00 37.00
C 185.95 39.41 209.90 47.44 212.92 65.08 C 215.95 82.71 195.07 95.40 178.93 99.93 C 162.79 104.45 136.86 109.68 118.00 108.00 C 99.14 106.32 79.92 100.95 62.78 94.22 C 45.63 87.50 35.08 67.94 50.25 54.25 C 65.42 40.56 79.26 37.82 99.00 34.00 C 118.74 30.18 144.09 32.16 164.00 35.00
M 45.00 90.00 
C 47.26 93.29 53.79 99.73 57.00 102.00
C 103.37 124.93 176.70 127.35 213.00 86.00
C 217.24 107.64 210.36 127.64 189.77 135.77 C 169.18 143.90 149.82 147.33 127.00 147.00 C 104.18 146.67 86.50 143.09 65.92 135.08 C 45.34 127.07 37.62 106.85 42.00 85.00
C 44.52 84.70 44.35 88.30 45.00 90.00
M 213.00 152.00 
C 213.00 152.50 212.98 153.50 213.00 154.00
C 213.39 162.22 201.36 170.16 195.00 173.00
C 192.06 174.32 189.02 175.51 186.00 177.00
C 180.38 179.78 175.40 180.76 169.00 182.00
C 141.10 191.92 100.37 188.86 74.00 178.00
C 61.14 175.52 45.97 164.39 43.00 151.00
C 41.32 143.42 41.34 132.51 43.00 125.00
C 44.90 126.99 46.38 129.66 48.00 132.00
C 52.59 137.26 62.02 143.14 68.00 146.00
C 85.59 152.10 100.74 154.24 120.00 157.00 C 139.27 159.76 158.98 150.61 177.00 150.00
C 177.95 149.97 179.06 150.17 180.00 150.00
C 182.00 149.24 184.56 146.96 187.00 146.00
C 196.93 140.52 206.13 131.12 214.00 124.00
C 213.34 133.17 215.33 143.66 213.00 152.00
M 213.00 192.00 
C 212.13 195.06 210.61 196.60 209.00 199.00
C 207.61 201.57 205.97 204.55 203.00 206.00
C 195.50 213.50 185.57 219.32 175.00 221.00
C 137.15 227.02 87.97 232.99 56.00 208.00
C 40.93 198.67 40.88 181.60 42.00 165.00
C 71.68 201.68 131.24 199.37 175.00 191.00
C 179.15 189.37 183.58 186.74 188.00 185.00
C 191.95 182.89 199.68 177.82 202.75 174.75 C 205.82 171.68 212.95 159.99 213.97 167.03 C 214.99 174.07 214.78 185.70 213.00 192.00 Z"/>
</g>
<g fill="#FD9D15" fill-opacity="1.00" stroke="None">
<path d="
M 172.00 37.00 
C 169.13 36.51 166.41 35.65 164.00 35.00
C 144.09 32.16 118.74 30.18 99.00 34.00 C 79.26 37.82 65.42 40.56 50.25 54.25 C 35.08 67.94 45.63 87.50 62.78 94.22 C 79.92 100.95 99.14 106.32 118.00 108.00 C 136.86 109.68 162.79 104.45 178.93 99.93 C 195.07 95.40 215.95 82.71 212.92 65.08 C 209.90 47.44 185.95 39.41 172.00 37.00 Z"/>
</g>
<g fill="#F3C692" fill-opacity="1.00" stroke="None">
<path d="
M 172.00 37.00 
C 169.38 36.19 167.18 35.45 164.00 35.00
C 166.41 35.65 169.13 36.51 172.00 37.00 Z"/>
</g>
<g fill="#FBA026" fill-opacity="1.00" stroke="None">
<path d="
M 57.00 102.00 
C 52.22 99.64 47.28 94.78 45.00 90.00
C 44.35 88.30 44.52 84.70 42.00 85.00
C 37.62 106.85 45.34 127.07 65.92 135.08 C 86.50 143.09 104.18 146.67 127.00 147.00 C 149.82 147.33 169.18 143.90 189.77 135.77 C 210.36 127.64 217.24 107.64 213.00 86.00
C 176.70 127.35 103.37 124.93 57.00 102.00 Z"/>
</g>
<g fill="#F2BD7F" fill-opacity="1.00" stroke="None">
<path d="
M 57.00 102.00 
C 53.79 99.73 47.26 93.29 45.00 90.00
C 47.28 94.78 52.22 99.64 57.00 102.00 Z"/>
</g>
<g fill="#F9EBDA" fill-opacity="1.00" stroke="None">
<path d="
M 187.00 146.00 
C 197.46 141.89 206.00 133.95 213.00 126.00
C 213.00 134.67 213.00 143.33 213.00 152.00
C 215.33 143.66 213.34 133.17 214.00 124.00
C 206.13 131.12 196.93 140.52 187.00 146.00 Z"/>
</g>
<g fill="#F3C692" fill-opacity="1.00" stroke="None">
<path d="
M 43.00 151.00 
C 42.24 143.65 42.73 134.57 44.00 128.00
C 57.94 148.05 77.85 152.56 101.01 155.99 C 124.17 159.42 155.41 158.88 177.00 150.00
C 158.98 150.61 139.27 159.76 120.00 157.00 C 100.74 154.24 85.59 152.10 68.00 146.00
C 60.65 143.45 52.80 138.46 48.00 132.00
C 46.38 129.66 44.90 126.99 43.00 125.00
C 41.34 132.51 41.32 143.42 43.00 151.00 Z"/>
</g>
<g fill="#F3C997" fill-opacity="1.00" stroke="None">
<path d="
M 187.00 146.00 
C 184.56 146.96 182.00 149.24 180.00 150.00
C 192.61 147.71 204.75 138.09 212.00 128.00
C 212.00 136.67 212.00 145.33 212.00 154.00
C 212.25 153.75 213.00 154.00 213.00 154.00
C 212.98 153.50 213.00 152.50 213.00 152.00
C 213.00 143.33 213.00 134.67 213.00 126.00
C 206.00 133.95 197.46 141.89 187.00 146.00 Z"/>
</g>
<g fill="#FC9D11" fill-opacity="1.00" stroke="None">
<path d="
M 43.00 151.00 
C 45.97 164.39 61.14 175.52 74.00 178.00
C 95.18 182.09 118.35 186.15 141.00 185.00 C 163.65 183.85 178.82 176.28 199.00 169.00
C 199.44 168.84 200.00 169.00 200.00 169.00
C 203.29 164.29 208.12 158.71 212.00 155.00
C 212.05 154.50 212.00 154.00 212.00 154.00
C 212.00 145.33 212.00 136.67 212.00 128.00
C 204.75 138.09 192.61 147.71 180.00 150.00
C 179.06 150.17 177.95 149.97 177.00 150.00
C 155.41 158.88 124.17 159.42 101.01 155.99 C 77.85 152.56 57.94 148.05 44.00 128.00
C 42.73 134.57 42.24 143.65 43.00 151.00 Z"/>
</g>
<g fill="#F7E5CE" fill-opacity="1.00" stroke="None">
<path d="
M 68.00 146.00 
C 62.02 143.14 52.59 137.26 48.00 132.00
C 52.80 138.46 60.65 143.45 68.00 146.00 Z"/>
</g>
<g fill="#F8E7D2" fill-opacity="1.00" stroke="None">
<path d="
M 212.00 155.00 
C 211.59 159.39 203.96 167.06 200.00 169.00
C 200.00 169.00 199.44 168.84 199.00 169.00
C 197.88 170.17 196.31 172.18 195.00 173.00
C 201.36 170.16 213.39 162.22 213.00 154.00
C 213.00 154.00 212.25 153.75 212.00 154.00
C 212.00 154.00 212.05 154.50 212.00 155.00 Z"/>
</g>
<g fill="#F3C187" fill-opacity="1.00" stroke="None">
<path d="
M 200.00 169.00 
C 203.96 167.06 211.59 159.39 212.00 155.00
C 208.12 158.71 203.29 164.29 200.00 169.00 Z"/>
</g>
<g fill="#F8EAD7" fill-opacity="1.00" stroke="None">
<path d="
M 188.00 185.00 
C 197.27 181.36 202.96 175.73 210.00 169.00
C 210.09 168.52 210.00 168.00 210.00 168.00
C 210.27 166.41 210.85 164.63 213.00 165.00
C 213.00 174.00 213.00 183.00 213.00 192.00
C 214.78 185.70 214.99 174.07 213.97 167.03 C 212.95 159.99 205.82 171.68 202.75 174.75 C 199.68 177.82 191.95 182.89 188.00 185.00 Z"/>
</g>
<g fill="#FC9E1D" fill-opacity="1.00" stroke="None">
<path d="
M 56.00 208.00 
C 77.33 221.21 104.45 224.45 130.00 224.00 C 155.55 223.55 181.77 221.46 202.00 206.00
C 202.32 205.76 203.00 206.00 203.00 206.00
C 205.97 204.55 207.61 201.57 209.00 199.00
C 211.18 194.96 212.43 186.96 212.00 183.00 C 211.57 179.04 212.42 165.95 210.00 168.00
C 210.00 168.00 210.09 168.52 210.00 169.00
C 208.78 175.24 200.72 179.18 195.77 182.77 C 190.82 186.36 181.18 189.28 175.00 191.00
C 131.24 199.37 71.68 201.68 42.00 165.00
C 40.88 181.60 40.93 198.67 56.00 208.00 Z"/>
</g>
<g fill="#F3CC9C" fill-opacity="1.00" stroke="None">
<path d="
M 210.00 168.00 
C 212.42 165.95 211.57 179.04 212.00 183.00 C 212.43 186.96 211.18 194.96 209.00 199.00
C 210.61 196.60 212.13 195.06 213.00 192.00
C 213.00 183.00 213.00 174.00 213.00 165.00
C 210.85 164.63 210.27 166.41 210.00 168.00 Z"/>
</g>
<g fill="#F3BD7F" fill-opacity="1.00" stroke="None">
<path d="
M 74.00 178.00 
C 100.37 188.86 141.10 191.92 169.00 182.00
C 174.28 180.12 180.39 178.80 186.00 177.00
C 189.02 175.51 192.06 174.32 195.00 173.00
C 196.31 172.18 197.88 170.17 199.00 169.00
C 178.82 176.28 163.65 183.85 141.00 185.00 C 118.35 186.15 95.18 182.09 74.00 178.00 Z"/>
</g>
<g fill="#F3C48F" fill-opacity="1.00" stroke="None">
<path d="
M 188.00 185.00 
C 183.58 186.74 179.15 189.37 175.00 191.00
C 181.18 189.28 190.82 186.36 195.77 182.77 C 200.72 179.18 208.78 175.24 210.00 169.00
C 202.96 175.73 197.27 181.36 188.00 185.00 Z"/>
</g>
<g fill="#F6DDC0" fill-opacity="1.00" stroke="None">
<path d="
M 169.00 182.00 
C 175.40 180.76 180.38 179.78 186.00 177.00
C 180.39 178.80 174.28 180.12 169.00 182.00 Z"/>
</g>
<g fill="#F3BF83" fill-opacity="1.00" stroke="None">
<path d="
M 56.00 208.00 
C 87.97 232.99 137.15 227.02 175.00 221.00
C 182.51 219.11 197.26 212.78 202.00 206.00
C 181.77 221.46 155.55 223.55 130.00 224.00 C 104.45 224.45 77.33 221.21 56.00 208.00 Z"/>
</g>
<g fill="#F8E6D0" fill-opacity="1.00" stroke="None">
<path d="
M 175.00 221.00 
C 185.57 219.32 195.50 213.50 203.00 206.00
C 203.00 206.00 202.32 205.76 202.00 206.00
C 197.26 212.78 182.51 219.11 175.00 221.00 Z"/>
</g>
</svg>