<?xml version="1.0" standalone="no"?>
<!DOCTYPE svg PUBLIC "-//W3C//DTD SVG 20010904//EN"
 "http://www.w3.org/TR/2001/REC-SVG-20010904/DTD/svg10.dtd">
<svg version="1.0" xmlns="http://www.w3.org/2000/svg"
 width="512.000000pt" height="512.000000pt" viewBox="0 0 512.000000 512.000000"
 preserveAspectRatio="xMidYMid meet">
<metadata>
Created by potrace 1.16, written by Peter Selinger 2001-2019
</metadata>
<g transform="translate(0.000000,512.000000) scale(0.100000,-0.100000)"
fill="currentColor" stroke="none">
<path d="M180 4940 c-20 -20 -20 -33 -20 -940 0 -907 0 -920 20 -940 19 -19
33 -20 319 -20 l298 0 6 -61 c11 -121 102 -246 222 -304 58 -28 66 -29 260
-35 223 -7 261 -16 322 -81 45 -48 63 -97 70 -192 l5 -82 -91 90 -91 90 -63
-63 -62 -62 171 -170 c229 -229 199 -229 428 0 l171 170 -62 62 -63 63 -89
-89 -89 -88 -3 113 c-4 102 -7 121 -33 174 -38 77 -114 153 -191 191 -59 28
-65 29 -260 35 -221 6 -252 14 -314 72 -38 37 -70 100 -71 140 l0 27 295 0
c282 0 296 1 315 20 20 20 20 33 20 702 l0 683 -258 257 -257 258 -443 0
c-429 0 -443 -1 -462 -20z m780 -360 c0 -207 1 -221 20 -240 19 -19 33 -20
240 -20 l220 0 0 -560 0 -560 -560 0 -560 0 0 800 0 800 320 0 320 0 0 -220z
m260 -5 l95 -95 -98 0 -97 0 0 95 c0 52 1 95 3 95 1 0 45 -43 97 -95z"/>
<path d="M480 4400 l0 -80 160 0 160 0 0 80 0 80 -160 0 -160 0 0 -80z"/>
<path d="M480 4080 l0 -80 400 0 400 0 0 80 0 80 -400 0 -400 0 0 -80z"/>
<path d="M480 3760 l0 -80 400 0 400 0 0 80 0 80 -400 0 -400 0 0 -80z"/>
<path d="M480 3440 l0 -80 400 0 400 0 0 80 0 80 -400 0 -400 0 0 -80z"/>
<path d="M1860 4940 c-20 -20 -20 -33 -20 -940 0 -907 0 -920 20 -940 19 -19
33 -20 320 -20 l300 0 0 -487 0 -488 -858 -249 c-1066 -310 -1039 -302 -1052
-326 -13 -25 -14 -714 0 -740 5 -10 38 -27 72 -39 204 -66 1892 -551 1919
-551 27 0 1876 532 1952 562 15 6 32 19 37 29 16 29 13 721 -3 743 -16 22 21
11 -1014 312 l-893 259 0 488 0 487 300 0 c287 0 301 1 320 20 20 20 20 33 20
702 l0 683 -258 257 -257 258 -443 0 c-429 0 -443 -1 -462 -20z m780 -360 c0
-207 1 -221 20 -240 19 -19 33 -20 240 -20 l220 0 0 -560 0 -560 -560 0 -560
0 0 800 0 800 320 0 320 0 0 -220z m260 -5 l95 -95 -98 0 -97 0 0 95 c0 52 1
95 3 95 1 0 45 -43 97 -95z m-420 -2887 l0 -203 -90 90 -90 90 -63 -63 -62
-62 171 -170 c168 -168 171 -170 214 -170 43 0 46 2 214 170 l171 170 -62 62
-63 63 -90 -90 -90 -90 0 202 0 201 218 -64 c119 -35 461 -134 759 -221 299
-87 543 -160 543 -163 0 -3 -360 -110 -800 -238 l-799 -233 -801 233 c-440
128 -800 235 -800 238 0 3 341 105 758 226 416 122 758 222 760 223 1 1 2 -90
2 -201z m-663 -680 l663 -193 0 -231 0 -231 -182 53 c-101 29 -497 145 -880
256 l-698 203 0 231 0 232 218 -64 c119 -35 515 -150 879 -256z m2583 90 l0
-233 -663 -193 c-364 -106 -760 -221 -879 -256 l-218 -64 0 232 0 231 878 256
c482 142 878 257 880 258 1 1 2 -104 2 -231z"/>
<path d="M2160 4400 l0 -80 160 0 160 0 0 80 0 80 -160 0 -160 0 0 -80z"/>
<path d="M2160 4080 l0 -80 400 0 400 0 0 80 0 80 -400 0 -400 0 0 -80z"/>
<path d="M2160 3760 l0 -80 400 0 400 0 0 80 0 80 -400 0 -400 0 0 -80z"/>
<path d="M2160 3440 l0 -80 80 0 80 0 0 80 0 80 -80 0 -80 0 0 -80z"/>
<path d="M2480 3440 l0 -80 80 0 80 0 0 80 0 80 -80 0 -80 0 0 -80z"/>
<path d="M2800 3440 l0 -80 80 0 80 0 0 80 0 80 -80 0 -80 0 0 -80z"/>
<path d="M3540 4940 c-20 -20 -20 -33 -20 -940 0 -907 0 -920 20 -940 19 -19
33 -20 315 -20 l295 0 0 -27 c-1 -40 -33 -103 -71 -140 -62 -58 -94 -66 -314
-73 -194 -6 -202 -7 -260 -35 -76 -37 -153 -113 -191 -190 -26 -53 -29 -72
-33 -174 l-3 -113 -89 88 -89 89 -63 -63 -62 -62 171 -170 c229 -229 199 -229
428 0 l171 170 -62 62 -63 63 -91 -90 -91 -90 5 82 c7 95 25 145 70 191 65 68
90 75 317 81 201 6 206 7 265 36 120 58 211 183 222 304 l6 61 298 0 c286 0
300 1 319 20 20 20 20 33 20 702 l0 683 -258 257 -257 258 -443 0 c-429 0
-443 -1 -462 -20z m780 -360 c0 -207 1 -221 20 -240 19 -19 33 -20 240 -20
l220 0 0 -560 0 -560 -560 0 -560 0 0 800 0 800 320 0 320 0 0 -220z m260 -5
l95 -95 -98 0 -97 0 0 95 c0 52 1 95 3 95 1 0 45 -43 97 -95z"/>
<path d="M3840 4400 l0 -80 160 0 160 0 0 80 0 80 -160 0 -160 0 0 -80z"/>
<path d="M3840 4080 l0 -80 400 0 400 0 0 80 0 80 -400 0 -400 0 0 -80z"/>
<path d="M3840 3760 l0 -80 400 0 400 0 0 80 0 80 -400 0 -400 0 0 -80z"/>
<path d="M3840 3440 l0 -80 400 0 400 0 0 80 0 80 -400 0 -400 0 0 -80z"/>
</g>
</svg>
